<svg version="1.1" id="Layer_1" xmlns="http://www.w3.org/2000/svg" xmlns:xlink="http://www.w3.org/1999/xlink" x="0px" y="0px" viewBox="0 0 139.1 78.1" style="enable-background:new 0 0 139.1 78.1;" xml:space="preserve">
 <g transform="translate(0.000000,20000.000000) scale(0.100000,-0.100000)">
  <path d="M376,199999.8c-27-0.9-54.4-4.7-80.8-11.3c-79.4-19.9-151.4-65.1-204.5-128.7c-50.9-60.9-82.2-135.9-89.2-214
		c-1.2-13.3-1.5-20.7-1.5-36.2c0-13.4,0.1-17.4,0.8-27.4c3.4-50,16.5-98.8,38.4-143.7c17-34.7,38.1-65.4,64.6-94.2
		c4.4-4.7,15.5-15.9,20.1-20.2c40.7-37.8,87.2-65.8,139.1-83.9c22.5-7.8,47.2-13.8,71.2-17.2c11.7-1.7,20.1-2.5,36.9-3.5
		c5.2-0.3,631.8-0.5,642.1-0.2c73.4,2.3,142.8,24.5,203.7,65.3c60.7,40.6,109.1,97.6,139.3,164c18.4,40.6,29.7,84.3,33.3,129.2
		c1.5,18.3,1.6,40,0.3,59c-5.5,81.6-36.9,159.6-89.8,222.8c-41.9,50.1-95.1,88.8-155.3,112.8c-38.7,15.5-79.2,24.4-121.5,26.8
		c-9.1,0.5-17.9,0.6-75.3,0.6h-60.4v-15v-15h36.6c34.8,0,36.6,0,36.5-0.3c-0.1-0.3-208.5-524-215-540.2l-1.6-3.9l-88.8,271.9
		c-48.8,149.5-88.8,272-88.9,272.2c-0.1,0.3,2,0.3,39,0.3h39.1v15v15l-131.9,0C440,200000,378.5,199999.9,376,199999.8z
		 M553,199607.7c66.6-199.2,121.2-362.3,121.2-362.5c0.1-0.3-6.3-0.3-144.4-0.3c-107.4,0.1-145.4,0.1-147.9,0.3
		c-18.8,1.3-29.3,2.4-43.3,4.7c-86.2,14.2-165,58.1-222.3,123.5c-51,58.4-81.6,130.5-87.4,206.2c-0.8,10.5-0.9,13.7-0.9,27.7
		c0,16.2,0.4,24.1,1.8,37.6c9.2,87.7,51.7,169.5,119.4,229.6c61.6,54.8,139.8,88,222.2,94.3c12.3,1,16.3,1,39.8,1l20.8,0
		L553,199607.7z M1003.4,199969.8c27.3-1.1,52.6-4.6,78.5-11.1c83.3-20.7,157.5-69.5,209-137.4c19.3-25.5,35.2-53.6,47-83
		c13.7-34.2,21.8-70,24.3-106.8c1-15.5,0.9-37.7-0.3-52.3c-2.6-31.1-8.6-59.6-18.6-88c-21.9-62.3-61-117.8-113.2-160.6
		c-27.2-22.4-57.9-41-90.5-55c-33.6-14.4-69.4-23.9-105.9-28.2c-7.4-0.9-12.9-1.3-25-2.1c-2.6-0.2-42.5-0.2-156.8-0.3
		c-84.3,0-153.3,0-153.3,0.1c0,0.1,63.8,163.1,141.7,362.3c78,199.2,141.8,362.3,141.8,362.5
		C982.3,199970,995.7,199970.1,1003.4,199969.8z">
  </path>
 </g>
</svg>